<svg width="21" height="22" viewBox="0 0 21 22" fill="none" xmlns="http://www.w3.org/2000/svg">
<path d="M3.88721 19.6643L17.8525 12.2709L17.8541 12.2702C18.8374 11.7497 19.3295 11.4892 19.4903 11.1418C19.6304 10.8391 19.6302 10.4901 19.4901 10.1874C19.3292 9.83981 18.837 9.57903 17.8528 9.05797L3.88748 1.66456C2.63554 1.00177 2.00924 0.670621 1.5965 0.76593C1.23854 0.848585 0.942825 1.09889 0.802447 1.43839C0.640581 1.82985 0.864391 2.50203 1.31235 3.8459L3.39842 10.1041C3.46634 10.3079 3.50115 10.4123 3.51495 10.5189C3.52747 10.6157 3.52685 10.7135 3.51433 10.8103C3.50021 10.9194 3.46499 11.0258 3.39391 11.239L1.31263 17.4829C0.86468 18.8267 0.640911 19.4996 0.802775 19.8911C0.943155 20.2306 1.23893 20.4803 1.59688 20.563C2.00956 20.6583 2.63568 20.3268 3.88721 19.6643Z" fill="#7A8083"/>
<path d="M3.7089 10.6644L11.4946 10.6644M17.8525 12.2708L3.88721 19.6643C2.63568 20.3268 2.00956 20.6583 1.59688 20.563C1.23893 20.4803 0.943155 20.2306 0.802776 19.8911C0.64091 19.4996 0.86468 18.8267 1.31263 17.4829L3.39391 11.239C3.46499 11.0258 3.50021 10.9194 3.51432 10.8103C3.52685 10.7135 3.52747 10.6157 3.51495 10.5189C3.50115 10.4123 3.46634 10.3079 3.39842 10.1041L1.31235 3.8459C0.864391 2.50203 0.640581 1.82985 0.802447 1.43839C0.942826 1.09889 1.23854 0.848585 1.5965 0.76593C2.00924 0.670621 2.63554 1.00177 3.88748 1.66456L17.8528 9.05797C18.837 9.57903 19.3292 9.83981 19.4901 10.1874C19.6302 10.4901 19.6304 10.8391 19.4903 11.1418C19.3295 11.4892 18.8374 11.7497 17.8541 12.2702L17.8525 12.2708Z" stroke="white" stroke-width="1.5" stroke-linecap="round" stroke-linejoin="round"/>
</svg>
